<?xml version="1.0" standalone="no"?>
<!DOCTYPE svg PUBLIC "-//W3C//DTD SVG 20010904//EN"
 "http://www.w3.org/TR/2001/REC-SVG-20010904/DTD/svg10.dtd">
<svg version="1.0" xmlns="http://www.w3.org/2000/svg"
 width="400.000000pt" height="400.000000pt" viewBox="0 0 400.000000 400.000000"
 preserveAspectRatio="xMidYMid meet">
<metadata>
Created by potrace 1.11, written by Peter Selinger 2001-2013
</metadata>
<g transform="translate(0.000000,400.000000) scale(0.100000,-0.100000)"
fill="#000000" stroke="none">
<path d="M1504 3341 c7 -10 3 -12 -13 -6 -11 3 -21 2 -21 -3 0 -6 -10 -8 -22
-4 -16 4 -19 2 -13 -9 8 -12 6 -12 -8 0 -12 9 -17 10 -17 2 0 -7 -4 -9 -10 -6
-5 3 -10 2 -10 -3 0 -6 -10 -8 -21 -5 -15 4 -27 0 -35 -12 -10 -14 -14 -15
-14 -4 0 8 -3 10 -8 4 -7 -10 -27 -17 -49 -18 -7 0 -13 -5 -13 -10 0 -6 -3 -7
-7 -4 -3 4 -13 1 -21 -6 -13 -10 -14 -9 -8 1 7 11 4 11 -13 0 -12 -7 -21 -16
-21 -19 0 -3 -13 -5 -30 -4 -17 1 -27 -2 -23 -8 4 -6 -1 -8 -11 -4 -10 4 -15
3 -11 -3 3 -6 -3 -10 -14 -10 -11 0 -23 -5 -26 -10 -5 -8 -11 -7 -21 1 -12 10
-13 9 -8 -6 5 -13 4 -16 -4 -11 -7 4 -25 -2 -41 -13 -16 -12 -37 -21 -46 -21
-9 0 -13 -4 -10 -10 3 -6 -4 -10 -16 -10 -12 0 -30 -9 -40 -21 -10 -11 -23
-18 -29 -14 -7 4 -14 -2 -17 -14 -3 -11 -9 -19 -13 -16 -4 3 -11 -2 -14 -11
-3 -8 -10 -12 -16 -9 -5 3 -10 -1 -10 -10 0 -9 -9 -19 -20 -22 -11 -3 -20 -12
-20 -21 0 -8 -3 -13 -6 -9 -8 7 -34 -17 -34 -32 0 -6 -6 -10 -12 -8 -7 1 -12
-4 -11 -10 2 -7 -8 -15 -21 -19 -14 -3 -23 -12 -22 -22 0 -9 -5 -16 -12 -14
-8 1 -11 -2 -7 -8 3 -5 1 -10 -4 -10 -6 0 -10 -4 -8 -9 1 -5 -7 -17 -18 -26
-11 -9 -14 -14 -8 -10 9 4 11 1 7 -9 -3 -9 -10 -13 -15 -10 -5 3 -10 0 -10 -5
-4 -32 -20 -62 -30 -55 -5 3 -6 -3 -2 -12 5 -13 3 -15 -7 -9 -9 6 -11 4 -6 -4
5 -7 0 -21 -11 -33 -12 -15 -13 -19 -3 -14 8 4 7 1 -4 -8 -10 -8 -15 -19 -12
-25 4 -5 1 -13 -5 -17 -8 -5 -10 -2 -5 7 4 8 1 5 -8 -5 -8 -10 -13 -22 -11
-26 3 -5 -2 -10 -10 -14 -8 -3 -15 -13 -15 -21 0 -9 -5 -13 -10 -10 -6 4 -9 3
-8 -2 4 -14 -13 -53 -23 -53 -6 0 -7 -4 -4 -10 3 -5 1 -10 -4 -10 -6 0 -11 -9
-11 -21 0 -11 -4 -17 -10 -14 -5 3 -10 -3 -10 -14 0 -12 -4 -21 -9 -21 -5 0
-11 -10 -13 -22 -2 -13 -9 -22 -16 -20 -7 1 -12 -3 -11 -10 3 -26 -1 -39 -11
-33 -6 3 -10 -1 -10 -10 0 -9 -4 -14 -9 -11 -5 3 -8 -2 -7 -12 0 -9 -5 -16
-12 -14 -6 1 -11 -1 -11 -5 3 -20 -2 -34 -11 -28 -5 3 -10 2 -10 -3 0 -14 -36
-52 -49 -52 -7 0 -10 -3 -8 -7 5 -8 -22 -38 -33 -38 -3 0 -4 -3 -3 -7 1 -3 -4
-9 -13 -12 -10 -4 -13 -1 -9 7 4 6 0 4 -8 -6 -9 -10 -18 -18 -21 -18 -19 2
-27 0 -22 -7 3 -4 -7 -8 -22 -8 -33 1 -43 -31 -16 -51 14 -10 20 -10 33 0 8 6
12 7 8 1 -3 -6 0 -11 8 -11 8 0 11 5 8 10 -4 6 0 8 10 4 10 -4 17 -1 17 5 0 6
3 8 6 5 8 -8 64 24 64 36 0 4 5 5 10 2 6 -3 10 -1 10 6 0 7 3 10 6 6 3 -3 19
8 35 24 16 16 29 26 29 22 0 -4 6 2 14 12 8 11 12 23 10 26 -2 4 6 9 17 12 12
3 18 10 14 16 -3 6 1 11 9 11 9 0 18 11 22 25 3 14 10 25 15 25 5 0 9 9 9 21
0 11 5 17 10 14 6 -3 10 3 10 14 0 12 5 21 12 21 6 0 8 3 5 7 -4 3 1 15 10 26
13 15 14 19 3 13 -8 -4 -6 0 5 9 11 9 19 18 18 20 -6 11 -2 35 5 34 18 -3 26
2 14 10 -11 7 -11 9 1 14 11 4 14 -1 12 -19 -1 -13 1 -24 5 -24 4 0 11 -7 14
-16 4 -10 2 -13 -7 -9 -6 4 -4 0 6 -8 12 -10 15 -17 7 -22 -8 -5 -6 -13 5 -25
10 -11 18 -35 20 -54 1 -19 7 -41 13 -49 7 -8 9 -17 5 -20 -3 -4 2 -16 12 -27
11 -12 16 -29 13 -45 -4 -20 -3 -23 8 -14 11 9 14 5 14 -20 0 -19 4 -30 10
-26 6 4 10 -5 10 -20 0 -15 4 -24 10 -20 6 3 10 0 10 -8 0 -23 28 -72 42 -72
6 0 13 -7 15 -15 4 -13 3 -13 -6 0 -6 8 -11 10 -11 5 0 -6 13 -25 29 -43 17
-17 25 -32 19 -32 -7 0 -3 -7 8 -15 10 -8 15 -15 11 -15 -4 0 2 -10 13 -22 11
-12 18 -29 15 -37 -4 -10 -2 -11 8 -3 10 8 13 7 13 -6 1 -21 7 -45 14 -52 20
-20 28 -48 17 -60 -9 -10 -9 -11 2 -5 11 6 13 4 8 -8 -3 -10 -2 -17 4 -17 6 0
7 -5 3 -12 -5 -7 -7 -25 -6 -40 1 -15 -1 -28 -6 -28 -4 0 -9 -10 -9 -22 -1
-13 -7 -24 -13 -26 -5 -2 -10 -10 -10 -18 0 -9 -4 -13 -8 -10 -5 3 -16 -6 -26
-19 -10 -14 -22 -22 -27 -19 -5 3 -9 0 -9 -6 0 -6 -5 -8 -10 -5 -6 3 -10 1
-10 -5 0 -6 -8 -10 -17 -8 -11 2 -18 -3 -17 -12 1 -10 -8 -15 -25 -15 -14 0
-25 -5 -24 -11 1 -8 -6 -10 -19 -6 -14 3 -19 1 -14 -6 5 -8 0 -12 -13 -12 -11
0 -26 -7 -35 -15 -17 -18 -30 -20 -20 -3 4 7 3 8 -4 4 -7 -4 -12 -14 -12 -22
0 -8 -4 -12 -10 -9 -5 3 -10 1 -10 -5 0 -6 -5 -8 -10 -5 -6 3 -13 -1 -16 -10
-4 -9 -13 -14 -21 -11 -8 3 -11 2 -8 -3 3 -6 -8 -18 -25 -28 -18 -10 -28 -23
-25 -31 3 -8 -3 -16 -15 -19 -11 -3 -20 -12 -20 -19 0 -8 -6 -14 -12 -14 -10
0 -10 -2 -1 -8 7 -4 9 -13 4 -21 -11 -18 -4 -73 12 -83 9 -6 9 -8 -2 -8 -11 0
-9 -4 5 -15 12 -9 14 -14 6 -15 -7 0 -10 -5 -7 -10 4 -6 11 -8 16 -5 5 4 9 -3
9 -14 0 -12 4 -21 9 -21 5 0 11 -9 14 -21 3 -12 10 -18 16 -14 7 3 8 0 5 -9
-6 -16 29 -40 41 -28 3 4 6 2 5 -3 -5 -22 1 -35 15 -35 9 0 18 -7 21 -15 4 -8
11 -12 17 -8 7 4 8 0 4 -11 -6 -14 -3 -17 8 -12 9 3 24 -3 35 -14 11 -11 22
-20 25 -20 3 0 12 0 21 0 9 0 12 -5 8 -12 -5 -8 0 -9 14 -6 15 4 22 2 22 -8 0
-8 10 -12 29 -11 16 1 27 5 25 8 -2 4 3 10 12 13 8 3 12 10 9 16 -3 5 1 10 9
10 8 0 18 9 21 21 4 13 12 18 21 15 8 -3 12 -2 9 3 -3 6 6 21 19 34 14 14 22
28 19 31 -4 3 2 6 12 6 10 0 16 3 12 6 -8 8 16 33 26 27 4 -2 7 0 7 6 0 5 23
34 52 63 29 29 46 44 39 33 -7 -11 -2 -8 12 8 27 28 44 36 31 15 -6 -10 -5
-10 8 -1 8 7 18 10 21 6 4 -3 7 1 7 10 0 10 5 17 11 17 5 0 7 -6 4 -12 -4 -7
2 -3 12 10 15 18 21 20 31 10 11 -11 13 -10 10 2 -2 8 3 14 10 12 6 -1 12 2
12 8 0 5 8 10 17 10 9 0 25 8 36 17 15 13 19 14 13 3 -5 -9 -2 -8 7 2 8 10 17
15 20 11 4 -3 7 -1 7 6 0 7 6 11 12 9 7 -3 18 0 25 6 37 33 46 38 63 33 12 -3
17 0 14 8 -4 11 26 26 42 22 3 -1 10 6 16 16 8 14 13 16 24 6 12 -10 13 -9 8
4 -6 16 28 42 40 30 3 -3 6 2 6 12 0 10 3 16 6 12 4 -3 13 1 21 9 8 8 20 11
26 7 7 -3 9 -3 5 2 -5 5 8 19 27 32 20 13 33 28 30 34 -4 5 0 9 7 9 18 0 45
33 40 48 -2 7 3 12 11 12 9 0 14 7 13 18 -2 9 4 23 13 30 9 8 10 11 4 7 -7 -3
-13 -2 -13 4 0 5 6 12 13 14 9 4 9 6 -1 6 -7 1 -10 6 -7 11 3 6 1 10 -5 10 -6
0 -9 4 -5 9 3 5 1 12 -4 16 -6 3 -8 12 -4 20 3 8 0 15 -7 15 -9 0 -9 4 1 17
10 11 10 14 2 9 -8 -4 -13 -1 -13 8 0 9 -5 16 -11 16 -6 0 -9 6 -6 14 3 8 -1
17 -10 20 -8 4 -13 13 -9 21 3 9 0 15 -10 15 -8 0 -12 4 -9 10 3 5 1 10 -5 10
-6 0 -9 4 -6 9 3 5 -1 11 -8 14 -8 3 -19 15 -25 25 -9 16 -7 21 9 25 16 4 18
2 10 -13 -7 -13 -6 -21 2 -26 6 -4 8 -3 4 4 -3 6 -2 13 3 16 5 3 11 -4 14 -15
3 -12 10 -18 16 -15 6 4 8 -2 6 -13 -2 -11 3 -22 12 -25 8 -4 13 -13 9 -21 -3
-8 0 -14 7 -12 7 1 11 -6 9 -17 -2 -12 1 -16 9 -10 9 5 10 2 6 -9 -4 -10 -2
-16 6 -14 7 1 11 -4 9 -10 -1 -7 3 -13 9 -13 5 0 7 -4 4 -10 -3 -5 -1 -10 5
-10 6 0 9 -4 6 -8 -3 -5 1 -20 9 -35 7 -14 11 -28 7 -31 -3 -3 1 -6 9 -6 9 0
10 -3 3 -8 -7 -5 -5 -14 9 -27 11 -11 17 -14 13 -5 -5 9 -2 8 7 -2 8 -10 17
-15 20 -11 4 3 7 1 7 -6 0 -7 5 -9 10 -6 5 3 10 1 10 -5 0 -6 4 -9 9 -5 5 3
15 -1 23 -8 7 -8 25 -13 40 -13 15 1 26 -3 25 -9 -2 -9 26 -15 76 -16 9 0 15
-4 13 -8 -3 -4 7 -7 21 -6 33 1 38 20 38 140 0 50 4 94 10 98 7 6 6 10 -2 14
-10 3 -9 11 2 34 9 16 15 30 15 31 1 17 14 48 21 48 5 0 9 6 9 13 0 7 18 28
40 47 21 18 37 38 33 43 -3 6 -2 8 3 5 5 -3 17 3 27 14 9 10 14 18 10 18 -4 0
4 8 17 17 14 10 28 18 32 18 3 0 10 4 15 9 5 5 3 6 -4 2 -21 -12 -14 8 7 22
11 7 20 19 20 27 0 8 7 15 15 15 9 0 12 6 9 15 -4 9 0 15 7 15 12 0 12 2 1 9
-11 7 -11 9 2 14 9 4 16 13 16 22 0 8 5 15 11 15 5 0 8 4 4 9 -3 5 0 13 6 16
5 4 8 14 5 22 -3 8 -1 11 4 8 12 -8 8 -39 -9 -59 -7 -8 -10 -19 -7 -24 3 -5
-5 -20 -17 -33 -12 -13 -21 -25 -19 -26 7 -8 -1 -25 -20 -44 -13 -12 -17 -19
-11 -15 9 5 11 2 7 -8 -3 -8 -12 -17 -20 -20 -9 -3 -13 -10 -9 -15 3 -5 -4
-12 -15 -16 -11 -4 -18 -11 -15 -16 4 -5 1 -9 -5 -9 -6 0 -8 -4 -5 -10 4 -6
-1 -7 -11 -3 -12 4 -15 3 -10 -5 4 -7 2 -12 -4 -12 -6 0 -9 -3 -7 -7 3 -5 -1
-14 -9 -21 -8 -7 -14 -9 -14 -5 0 4 -12 -12 -27 -34 -15 -23 -29 -41 -32 -40
-3 1 -8 -3 -10 -8 -2 -6 -11 -16 -20 -23 -12 -10 -12 -12 -1 -6 13 7 13 5 2
-9 -8 -9 -11 -25 -7 -38 6 -16 4 -20 -6 -13 -10 6 -10 3 1 -11 13 -17 13 -18
-1 -13 -9 4 -16 1 -16 -7 0 -8 7 -11 16 -7 14 5 14 3 2 -11 -11 -14 -11 -17 0
-17 11 0 11 -2 -1 -10 -8 -5 -10 -10 -5 -10 6 0 10 -34 10 -83 -1 -87 2 -110
14 -102 4 2 8 -2 8 -9 0 -9 -7 -12 -16 -8 -13 4 -12 1 3 -16 12 -14 14 -22 7
-22 -7 0 -9 -5 -5 -12 10 -16 12 -78 2 -78 -4 0 -8 -5 -8 -11 0 -6 6 -7 13 -2
6 4 4 -5 -5 -20 -19 -28 -25 -52 -7 -27 9 12 9 11 3 -5 -4 -11 -8 -30 -8 -42
-1 -13 -4 -23 -8 -23 -3 0 -11 -13 -17 -30 -5 -16 -15 -30 -22 -30 -8 0 -8 -4
1 -16 11 -12 11 -15 -1 -12 -8 2 -13 -4 -13 -14 1 -10 -1 -17 -5 -16 -20 2
-31 -3 -26 -13 4 -5 0 -18 -8 -27 -15 -17 -17 -21 -17 -43 0 -5 -3 -8 -7 -6
-5 3 -8 -17 -8 -44 -1 -27 4 -49 10 -49 5 0 3 -5 -5 -10 -13 -8 -12 -10 3 -10
9 0 17 -7 17 -15 0 -8 5 -15 10 -15 6 0 10 -7 10 -15 0 -8 7 -15 16 -15 8 0
12 -4 9 -10 -3 -5 -1 -10 6 -10 6 0 18 -8 26 -17 10 -12 12 -13 8 -3 -4 10 -2
9 8 -2 8 -10 21 -18 30 -18 8 0 18 -6 20 -12 4 -9 6 -8 6 2 1 13 2 13 11 0 11
-17 160 -22 157 -5 -1 5 3 10 8 9 6 0 21 11 35 24 14 14 18 22 10 18 -12 -6
-11 -4 1 6 9 7 18 18 20 23 2 6 8 9 13 7 5 -2 4 4 -4 12 -9 12 -9 16 -1 16 7
0 9 5 6 10 -3 6 -2 10 3 10 5 0 8 16 7 35 0 25 4 35 15 35 12 0 12 2 1 9 -9 6
-10 11 -2 15 6 4 9 11 6 16 -3 5 -1 11 5 15 6 4 8 10 5 15 -3 5 -1 11 5 15 6
4 8 11 5 16 -4 5 -1 9 5 9 7 0 9 7 6 16 -3 8 -2 12 4 9 6 -3 10 3 10 14 0 12
5 21 11 21 6 0 9 6 7 12 -3 7 0 18 6 25 34 39 36 41 23 46 -7 3 -4 6 6 6 11 1
15 6 11 12 -3 6 0 15 7 20 8 4 14 13 14 18 0 6 9 17 20 26 11 9 13 13 5 9 -13
-7 -13 -6 0 12 8 10 22 25 30 32 13 12 13 13 0 6 -13 -7 -13 -5 -1 9 7 9 17
14 22 11 5 -3 6 2 3 10 -3 9 2 17 15 21 12 3 19 11 15 16 -3 6 5 19 17 30 l24
20 17 -21 c10 -12 15 -26 12 -31 -3 -5 0 -9 6 -9 6 0 9 -4 6 -9 -3 -5 1 -11 9
-15 8 -3 15 -11 15 -17 0 -13 38 -49 52 -49 5 0 6 -5 3 -10 -3 -6 1 -13 9 -16
9 -3 16 -13 16 -21 0 -8 5 -11 12 -7 7 5 8 3 3 -5 -4 -7 3 -23 16 -38 13 -15
17 -23 9 -19 -13 6 -13 5 0 -6 9 -7 15 -22 13 -33 -1 -11 0 -14 3 -8 10 22 21
14 19 -12 -2 -14 1 -27 6 -31 5 -3 7 -10 4 -15 -4 -5 -1 -9 6 -9 7 0 10 -3 6
-6 -3 -4 0 -19 8 -34 11 -22 12 -30 2 -33 -7 -3 -5 -6 5 -6 11 -1 16 -8 13
-21 -2 -11 0 -18 6 -15 5 4 9 0 9 -9 0 -8 6 -17 13 -19 9 -4 8 -6 -2 -6 -10
-1 -7 -7 7 -20 12 -10 19 -21 15 -24 -3 -4 2 -9 11 -13 9 -3 16 -12 16 -20 0
-8 7 -14 15 -14 8 0 15 -4 15 -10 0 -5 10 -14 21 -21 17 -9 20 -8 13 3 -4 7 2
4 14 -6 15 -13 22 -15 22 -6 0 9 7 7 22 -6 12 -10 18 -13 14 -6 -7 12 1 13
101 15 12 1 20 5 17 9 -5 7 18 12 39 9 4 0 7 3 7 9 0 5 9 10 20 10 10 0 24 9
30 19 5 11 20 23 31 26 17 6 19 9 8 16 -8 5 -9 9 -3 9 6 0 11 7 11 15 0 8 -5
11 -10 8 -6 -4 -8 0 -4 10 4 10 2 17 -4 17 -6 0 -9 7 -5 15 3 8 1 15 -4 15 -6
0 -10 7 -10 15 0 8 -5 15 -11 15 -5 0 -7 5 -4 10 3 6 1 10 -5 10 -6 0 -9 4 -6
9 3 5 -1 12 -10 15 -8 3 -13 10 -10 15 4 5 1 11 -4 13 -6 2 -12 13 -13 25 0
12 -5 19 -9 17 -4 -3 -8 7 -8 21 0 15 -4 24 -10 20 -6 -3 -7 1 -4 9 3 9 2 16
-4 16 -6 0 -8 9 -5 20 3 11 1 26 -5 33 -5 6 -8 20 -7 30 2 9 -1 17 -7 17 -6 0
-5 7 2 16 11 12 11 15 0 12 -9 -2 -14 9 -16 32 -1 19 -2 43 -3 53 -1 10 -5 16
-9 13 -4 -2 -8 4 -8 15 0 10 4 19 8 19 4 0 8 5 8 11 0 5 -6 7 -12 3 -8 -5 -7
0 2 11 8 10 10 16 4 12 -9 -5 -11 12 -10 58 0 36 -3 65 -7 65 -4 0 -3 8 2 18
7 13 6 23 -1 30 -9 9 -9 12 1 12 8 0 11 6 7 16 -4 9 -1 24 6 32 10 12 10 14 1
8 -7 -4 -13 -3 -13 3 0 5 5 13 11 16 6 4 8 13 5 21 -3 7 -1 16 5 19 5 4 6 12
2 18 -4 7 1 6 11 -2 13 -11 16 -11 14 -2 -2 8 8 14 24 16 21 3 25 0 21 -12 -4
-11 -2 -14 5 -9 12 7 82 -58 82 -76 0 -6 8 -17 18 -25 9 -8 11 -11 3 -8 -9 5
-8 0 4 -18 9 -15 14 -31 10 -36 -4 -7 1 -8 12 -4 16 6 16 5 4 -11 -12 -15 -12
-17 0 -14 10 2 13 -5 11 -24 -2 -19 1 -28 10 -28 9 0 13 -10 12 -30 -1 -16 2
-30 7 -30 5 0 9 -5 9 -11 0 -5 -6 -7 -12 -3 -7 4 -6 -1 3 -12 9 -10 15 -31 14
-47 -3 -17 0 -25 7 -21 7 5 9 -4 6 -26 -3 -20 0 -34 8 -37 7 -2 10 -12 7 -20
-5 -12 -3 -14 8 -8 12 7 12 6 1 -7 -9 -11 -10 -18 -2 -23 6 -3 8 -11 5 -16 -4
-5 -1 -9 5 -9 6 0 8 -5 5 -11 -4 -5 1 -20 12 -31 10 -12 12 -18 5 -14 -11 7
-12 4 -3 -11 6 -11 7 -24 3 -28 -4 -3 0 -5 8 -3 8 1 14 -4 15 -12 1 -8 6 -14
12 -13 7 2 10 -6 8 -19 -3 -11 -2 -18 1 -15 4 3 16 -5 29 -19 12 -13 28 -24
35 -24 7 0 10 -3 7 -7 -10 -9 25 -32 51 -33 12 0 22 -4 22 -9 0 -12 88 -12 96
0 4 6 11 6 20 -2 12 -10 15 -10 12 2 -2 8 3 13 10 12 6 -2 12 4 12 13 0 8 5
12 10 9 6 -3 10 -1 10 5 0 6 4 9 8 6 4 -2 8 20 7 50 0 30 -3 54 -7 54 -5 0 -8
5 -8 11 0 5 6 7 13 4 6 -4 4 0 -5 8 -10 8 -18 22 -18 31 0 11 -5 14 -12 10 -8
-5 -9 0 -6 14 4 14 2 22 -7 22 -7 0 -18 14 -25 30 -7 17 -15 28 -18 26 -5 -5
-17 6 -42 38 -12 16 -12 18 -1 11 10 -5 12 -4 7 3 -4 7 -14 12 -23 12 -12 0
-13 3 -4 14 9 10 8 15 -4 20 -8 3 -15 10 -15 16 0 6 6 8 13 4 9 -6 9 -4 1 7
-6 8 -10 22 -9 32 2 9 -1 17 -6 17 -6 0 -7 5 -4 10 13 20 15 60 4 60 -6 0 -1
9 12 21 13 11 18 18 12 14 -15 -7 -18 31 -3 40 6 4 6 15 0 30 -6 16 -6 25 0
25 5 0 6 7 3 17 -5 12 -3 14 7 8 10 -6 10 -4 2 11 -7 13 -6 26 4 46 8 15 11
28 8 28 -4 0 1 10 12 22 11 14 13 18 3 11 -13 -11 -15 -9 -14 8 1 11 6 24 11
27 5 4 10 16 10 27 3 34 8 49 24 63 8 8 9 11 3 7 -16 -8 -17 7 -1 23 7 7 9 12
5 12 -4 0 -1 13 7 29 9 16 12 31 9 35 -4 3 0 6 8 6 11 0 11 2 -1 10 -10 6 -11
10 -2 10 6 0 12 12 12 26 0 14 4 22 10 19 6 -3 7 1 4 9 -4 10 -1 16 7 16 12 0
12 2 1 9 -11 6 -10 10 3 15 14 5 15 9 5 21 -9 10 -9 15 -1 15 6 0 11 16 11 36
0 19 4 33 8 30 5 -3 9 1 9 9 0 8 -5 15 -11 15 -6 0 -5 4 3 9 12 7 15 38 16
135 0 69 -2 126 -5 126 -3 0 -5 10 -6 23 0 12 -4 31 -9 41 -6 13 -5 17 2 13 8
-5 7 1 0 17 -7 13 -14 23 -17 21 -3 -2 -7 5 -8 16 -4 43 -6 49 -15 49 -5 0 -7
7 -4 15 4 8 1 17 -5 21 -7 5 -8 2 -3 -6 6 -9 4 -11 -4 -6 -7 5 -10 14 -7 22 3
8 1 14 -5 14 -6 0 -7 5 -4 10 3 6 0 10 -8 10 -10 0 -14 7 -10 23 4 18 3 19 -6
7 -9 -13 -11 -12 -11 4 0 10 -10 28 -23 40 -13 12 -21 28 -19 35 3 8 0 11 -7
7 -6 -4 -11 0 -11 9 0 9 -4 13 -10 10 -6 -3 -10 4 -10 16 0 12 -3 20 -6 16 -7
-6 -34 17 -34 28 0 4 -18 24 -40 45 -22 21 -40 43 -40 49 0 7 -4 10 -9 7 -5
-3 -11 1 -15 9 -3 8 -12 15 -21 15 -8 0 -14 5 -13 12 2 6 -8 17 -22 25 -14 7
-21 13 -17 13 5 0 1 8 -9 18 -10 9 -19 16 -22 14 -2 -2 -13 8 -26 22 -12 14
-27 26 -33 26 -6 0 -16 7 -24 16 -7 8 -21 13 -31 11 -12 -4 -18 0 -18 11 0 11
-3 13 -8 6 -7 -11 -63 -11 -81 1 -6 3 -11 2 -11 -4 0 -10 -31 -8 -49 3 -4 3
-18 -4 -29 -15 -14 -13 -22 -15 -22 -7 0 9 -3 9 -10 -2 -8 -12 -10 -12 -10 -1
0 11 -3 11 -15 1 -8 -6 -19 -9 -25 -5 -5 3 -10 -2 -11 -12 0 -11 -2 -13 -6 -5
-4 10 -10 9 -26 -5 -15 -13 -18 -14 -13 -3 4 8 -1 5 -10 -7 -9 -13 -22 -23
-28 -23 -6 0 -4 5 4 10 8 5 10 10 4 10 -6 0 -17 -7 -24 -15 -7 -8 -19 -15 -26
-15 -8 0 -14 -5 -14 -11 0 -6 -7 -8 -16 -5 -8 3 -13 2 -10 -3 5 -8 -29 -25
-46 -22 -5 1 -8 -4 -8 -10 0 -5 -4 -8 -9 -5 -5 4 -12 0 -14 -6 -4 -10 -6 -9
-6 1 -1 10 -4 11 -15 2 -9 -7 -17 -8 -20 -2 -3 5 -14 7 -24 4 -10 -2 -24 3
-32 11 -10 13 -16 14 -27 4 -11 -9 -13 -9 -11 1 2 7 -8 15 -21 17 -14 3 -31
10 -40 17 -12 10 -13 9 -6 -3 7 -12 5 -12 -11 1 -10 9 -29 15 -41 14 -12 -1
-20 2 -17 7 3 4 -2 9 -10 9 -24 2 -29 4 -55 18 -20 11 -22 11 -15 -1 6 -11 5
-11 -9 1 -9 7 -17 10 -17 6 0 -4 -7 -2 -15 5 -8 7 -24 10 -34 7 -12 -3 -22 1
-26 11 -5 14 -7 14 -15 2 -6 -8 -10 -10 -10 -4 0 7 -7 15 -16 18 -8 3 -13 2
-10 -3 3 -4 -6 -6 -19 -3 -14 2 -25 8 -25 14 0 5 -12 7 -27 5 -17 -2 -33 2
-40 12 -10 12 -12 13 -13 2 0 -9 -4 -10 -12 -4 -7 6 -25 10 -40 9 -19 -1 -28
3 -29 14 0 11 -2 11 -6 2 -4 -10 -8 -10 -21 0 -13 11 -14 11 -7 -2 8 -13 7
-13 -8 -1 -9 7 -26 11 -36 8 -11 -3 -28 1 -38 8 -13 9 -22 10 -30 3 -9 -7 -13
-7 -13 2 0 9 -3 10 -13 1 -10 -7 -16 -8 -24 0 -6 6 -30 11 -52 11 -23 0 -39 3
-37 7 3 4 -5 8 -17 8 -17 2 -19 0 -7 -7 13 -8 12 -10 -2 -10 -10 0 -18 5 -18
10 0 6 -5 10 -11 10 -5 0 -7 -6 -3 -12 6 -10 4 -10 -8 0 -22 17 -322 16 -311
-1 4 -7 -2 -5 -12 3 -14 11 -17 11 -11 1z m1572 -340 c-3 -5 13 -8 37 -7 25 1
49 -4 60 -12 12 -11 17 -12 17 -3 0 8 10 6 28 -7 15 -10 34 -22 42 -25 12 -4
11 -6 -3 -6 -10 -1 -25 6 -33 14 -8 8 -20 12 -28 9 -7 -3 -19 2 -26 10 -7 9
-17 13 -23 9 -7 -4 -28 -6 -47 -5 -28 2 -32 1 -20 -8 13 -10 13 -11 0 -7 -8 2
-26 -4 -39 -14 -13 -11 -30 -19 -38 -19 -8 0 -11 -5 -7 -12 4 -6 3 -8 -3 -5
-6 4 -14 0 -17 -9 -3 -8 -10 -12 -16 -9 -5 3 -10 -1 -10 -9 0 -9 -4 -16 -9
-16 -18 0 -18 15 1 33 10 9 18 15 18 12 0 -3 6 0 14 7 8 7 11 17 8 22 -3 5 2
7 11 3 12 -4 17 -1 17 11 0 15 2 15 10 2 9 -13 14 -7 11 13 0 4 2 6 7 6 16 -3
32 1 31 9 -2 12 1 22 7 22 3 0 3 -4 0 -9z m217 -78 c-7 -2 -19 -2 -25 0 -7 3
-2 5 12 5 14 0 19 -2 13 -5z m-363 -63 c0 -5 -4 -10 -9 -10 -5 0 -13 -9 -16
-20 -8 -25 -21 -26 -21 -1 0 11 3 18 7 15 4 -2 9 3 13 11 6 17 26 21 26 5z
m-53 -74 c0 -8 -3 -15 -6 -14 -19 2 -22 -4 -11 -17 11 -13 10 -14 -2 -10 -8 3
-15 0 -16 -7 -2 -11 -9 -54 -11 -68 -1 -3 -5 1 -10 9 -6 8 -8 -5 -7 -38 0 -28
6 -51 11 -51 6 0 4 -4 -3 -9 -18 -11 -17 -20 4 -35 9 -7 14 -18 10 -24 -3 -5
-1 -12 5 -14 7 -2 4 -10 -7 -18 -10 -8 -15 -10 -11 -3 4 6 3 14 -3 18 -5 3
-10 15 -10 26 0 10 -6 19 -12 19 -9 0 -8 4 2 10 8 5 10 10 4 10 -6 0 -10 10
-10 23 1 12 -3 28 -8 36 -8 11 -8 13 1 8 9 -6 11 1 8 22 -2 19 2 31 11 35 7 3
11 12 8 20 -3 8 0 17 5 21 6 3 8 11 5 17 -5 7 -2 8 6 3 10 -6 12 -4 7 8 -4 11
-1 17 9 17 8 0 12 5 9 10 -3 6 0 10 8 10 7 0 14 -6 14 -14z m-18 -308 c-4 -31
2 -49 13 -42 7 4 8 3 4 -4 -4 -7 -2 -12 3 -12 13 0 10 -22 -4 -33 -5 -5 1 -5
14 -2 13 4 21 3 18 -2 -3 -5 5 -28 18 -51 14 -24 21 -50 18 -59 -5 -12 -3 -14
7 -8 9 5 11 4 6 -3 -4 -7 -2 -12 4 -12 6 0 8 -4 5 -10 -3 -5 1 -10 10 -10 9 0
13 -5 10 -10 -4 -6 -11 -7 -17 -4 -7 4 -8 2 -4 -4 4 -7 3 -12 -3 -12 -5 0 -12
14 -16 30 -4 17 -11 27 -17 24 -6 -4 -8 2 -3 16 6 18 4 22 -8 17 -12 -4 -14 0
-11 18 2 14 -2 25 -11 29 -8 3 -12 12 -9 19 3 8 -2 17 -10 20 -9 4 -13 13 -10
22 3 8 1 15 -6 15 -6 0 -9 4 -5 9 3 5 -2 16 -10 24 -8 9 -12 23 -9 31 7 19 26
21 23 4z m851 -18 c0 -5 -10 -6 -22 -4 -13 2 -17 2 -10 -2 19 -9 14 -23 -8
-19 -11 2 -20 -1 -20 -6 0 -6 -4 -8 -9 -4 -6 3 -14 -3 -20 -12 -8 -14 -10 -15
-11 -3 0 13 -2 13 -9 1 -11 -18 -61 -26 -61 -11 0 6 5 8 10 5 6 -3 10 -1 10 5
0 6 8 13 18 17 9 3 29 15 45 25 16 11 27 15 27 8 0 -7 6 -5 15 4 15 15 45 12
45 -4z m-20 -106 c0 -8 -10 -25 -21 -37 -12 -12 -18 -16 -14 -8 5 9 -1 7 -19
-4 -14 -10 -26 -13 -27 -9 0 5 -2 19 -3 31 -2 15 2 20 15 18 13 -3 16 1 12 12
-5 12 -2 15 10 10 9 -3 17 -2 17 3 0 5 7 7 15 4 8 -4 15 -13 15 -20z m-1268
-106 c-7 -7 -8 -17 -2 -29 7 -12 6 -20 -2 -25 -6 -4 -8 -3 -5 2 3 6 2 16 -3
24 -8 13 4 40 18 40 3 0 1 -5 -6 -12z m586 -85 c9 -7 11 -13 6 -13 -6 0 -9
-13 -6 -30 3 -19 8 -27 16 -23 6 4 5 0 -2 -9 -8 -10 -9 -18 -3 -22 14 -9 4
-33 -14 -33 -9 0 -13 13 -11 44 2 33 -1 43 -13 44 -12 1 -12 2 2 6 16 4 16 6
-3 30 -16 21 -18 28 -8 34 8 5 15 3 17 -4 2 -7 10 -18 19 -24z m-1603 -123
c-3 -5 6 -17 20 -26 26 -17 33 -34 13 -34 -6 0 -8 3 -5 6 3 4 -5 15 -18 26
-21 17 -26 38 -9 38 3 0 3 -4 -1 -10z m1615 -25 c11 -13 10 -14 -4 -9 -14 5
-15 3 -6 -21 12 -33 12 -35 -1 -35 -5 0 -7 5 -4 10 3 6 2 10 -4 10 -6 0 -7 7
-4 17 5 11 3 14 -6 8 -10 -6 -11 -3 -2 14 14 25 15 25 31 6z m-1516 -67 c4 3
4 -2 0 -12 -5 -13 -4 -17 4 -12 11 6 26 -10 27 -29 1 -5 7 -9 15 -7 11 3 12 0
4 -8 -12 -12 -47 -3 -38 11 3 5 -2 12 -10 15 -9 3 -16 13 -16 21 0 8 -5 11
-10 8 -6 -4 -10 -3 -9 2 1 4 1 15 0 23 -1 13 -2 13 -11 0 -5 -8 -10 -10 -10
-4 0 22 15 25 31 5 9 -11 20 -17 23 -13z m1508 -30 c-2 -10 -7 -18 -11 -18 -4
0 -7 8 -7 18 0 10 5 19 12 19 6 0 9 -9 6 -19z m275 5 c-4 -3 -2 -12 4 -20 7
-8 8 -13 1 -13 -12 0 -23 26 -15 34 4 3 9 6 11 6 3 0 2 -3 -1 -7z m-261 -62
c0 -11 -4 -17 -8 -15 -14 9 -9 -7 7 -23 8 -8 13 -18 10 -23 -6 -10 31 -75 42
-75 5 0 7 -6 7 -13 -1 -8 2 -10 10 -4 6 5 30 8 54 7 25 -1 42 3 42 9 0 6 9 17
20 24 17 10 20 10 20 -4 0 -9 -5 -12 -12 -8 -8 5 -9 2 -5 -10 4 -10 3 -15 -3
-11 -6 3 -12 0 -15 -7 -3 -8 -15 -15 -27 -15 -12 -1 -25 -8 -29 -15 -7 -10 -9
-11 -9 0 0 9 -5 10 -19 2 -13 -7 -22 -7 -26 0 -3 5 -16 15 -28 22 -21 11 -21
10 -7 -7 9 -11 10 -16 3 -11 -7 4 -18 16 -24 28 -9 16 -8 19 3 12 7 -4 5 2 -5
14 -11 12 -19 36 -19 56 0 22 -4 33 -10 30 -6 -4 -5 3 1 15 9 16 9 21 -1 22
-7 0 -4 4 7 9 11 5 20 9 20 9 1 1 1 -8 1 -18z m261 -7 c-3 -3 -12 -4 -19 -1
-8 3 -5 6 6 6 11 1 17 -2 13 -5z m-17 -41 c0 -21 -3 -24 -9 -14 -5 8 -7 20 -4
28 8 21 13 15 13 -14z m-20 -39 c0 -8 -4 -12 -10 -9 -5 3 -10 10 -10 16 0 5 5
9 10 9 6 0 10 -7 10 -16z m-151 -193 c2 -1 -7 -9 -20 -20 -13 -10 -34 -18 -46
-16 -13 1 -23 -2 -23 -7 0 -5 -4 -6 -10 -3 -5 3 -10 1 -10 -5 0 -6 -3 -9 -8
-7 -4 3 -23 -3 -43 -12 -19 -10 -45 -17 -56 -16 -14 1 -19 -3 -16 -12 3 -7 -2
-13 -11 -13 -9 0 -16 -5 -16 -11 0 -8 -5 -7 -15 1 -13 11 -14 10 -10 -2 3 -8
-3 -23 -15 -33 -11 -10 -20 -14 -20 -10 0 4 -8 -1 -17 -11 -21 -23 -44 -25
-51 -5 -3 10 0 12 11 8 9 -3 19 -1 23 5 4 7 3 8 -4 4 -8 -4 -10 -2 -6 7 3 8
13 14 22 13 10 0 16 5 14 14 -2 8 -1 12 3 8 4 -4 14 0 22 8 8 8 18 12 23 9 11
-6 33 22 26 33 -3 5 6 8 19 6 14 -1 25 1 25 4 0 4 12 13 27 19 21 10 28 10 35
0 6 -9 8 -9 8 1 0 7 5 10 10 7 6 -3 10 -1 10 5 0 6 4 9 9 5 5 -3 12 -1 16 5 4
6 12 7 18 3 28 -17 42 -10 38 19 0 5 9 5 38 -1z"/>
<path d="M2910 2306 c0 -2 7 -7 16 -10 8 -3 12 -2 9 4 -6 10 -25 14 -25 6z"/>
<path d="M1457 1270 c-10 -12 -23 -18 -29 -14 -7 5 -9 2 -5 -9 4 -11 2 -14 -9
-10 -7 3 -14 0 -14 -7 0 -6 -5 -8 -11 -5 -5 4 -18 -2 -28 -14 -14 -16 -20 -18
-30 -8 -10 9 -11 8 -5 -6 5 -13 2 -16 -10 -11 -10 4 -18 0 -22 -11 -4 -9 -12
-14 -19 -11 -8 3 -16 -2 -19 -10 -3 -8 -14 -14 -25 -14 -10 0 -22 -8 -25 -17
-6 -15 -8 -15 -16 -3 -8 12 -10 12 -15 -2 -4 -10 -15 -15 -27 -13 -13 3 -18 0
-15 -9 4 -9 -2 -12 -20 -10 -17 2 -23 -2 -19 -11 3 -9 0 -12 -10 -8 -7 3 -14
0 -14 -6 0 -6 -9 -11 -20 -11 -22 0 -22 -3 -23 -163 -1 -53 3 -81 12 -86 7 -5
13 -12 13 -17 1 -22 22 -54 35 -54 8 0 11 -4 8 -10 -3 -5 2 -10 13 -10 10 0
24 -10 30 -22 6 -13 11 -17 11 -10 1 7 6 10 11 7 6 -4 8 -10 6 -14 -3 -4 7 -6
22 -6 15 1 32 -1 37 -4 23 -12 99 -11 106 1 7 10 9 10 9 -1 0 -11 3 -11 17 0
14 12 15 12 9 1 -7 -11 -4 -12 11 -3 11 6 23 7 27 4 3 -3 6 -1 6 5 0 6 7 9 15
6 9 -4 15 0 15 7 0 11 3 11 10 -1 8 -13 10 -13 10 2 0 11 5 15 15 12 8 -4 17
1 21 10 3 9 10 14 14 11 13 -8 24 36 20 85 -1 25 -3 55 -3 68 -1 12 -5 22 -9
22 -4 0 -8 5 -8 11 0 5 4 8 8 5 5 -3 9 1 9 9 0 8 -4 12 -8 10 -4 -3 -9 2 -13
10 -3 8 0 15 7 15 8 0 6 4 -3 10 -12 8 -12 10 -1 10 9 0 10 4 3 13 -5 6 -9 23
-8 37 1 14 -5 30 -14 37 -13 10 -13 12 3 18 17 7 17 8 0 22 -10 8 -11 11 -3 7
13 -7 13 -5 1 9 -9 12 -10 17 -2 17 9 0 9 5 1 20 -6 11 -8 20 -6 20 3 0 1 12
-4 26 -6 14 -6 23 -2 20 4 -2 8 9 7 25 0 16 -4 29 -8 29 -5 0 -5 5 -2 10 10
17 0 11 -18 -10z"/>
</g>
</svg>
